<svg id="Camada_1" data-name="Camada 1" xmlns="http://www.w3.org/2000/svg" viewBox="0 0 1773.47 700"><defs><style>.cls-1{fill:#fff;}</style></defs><title>Branco Horizontal</title><path class="cls-1" d="M1016.17,416.3a58.72,58.72,0,0,0,20.65-14.52,67,67,0,0,0,13.12-22.13,79.75,79.75,0,0,0,4.72-27.73,76.3,76.3,0,0,0-3.24-22.47,60,60,0,0,0-9.27-18.63,67.7,67.7,0,0,0-14.08-14,60.06,60.06,0,0,0-17.84-9,68.89,68.89,0,0,0-20.65-3.06q-19.05,0-34.11,8.92A62.24,62.24,0,0,0,932,318.25a73,73,0,0,0-8.4,35.08,74.24,74.24,0,0,0,5.25,28.16,62.41,62.41,0,0,0,14.26,21.69,64.22,64.22,0,0,0,21,13.56,69.85,69.85,0,0,0,52-.44m56.68-147.64V434.49a100.58,100.58,0,0,1-5,32.62,71.08,71.08,0,0,1-15,25.46q-10,10.85-25.89,16.79t-36.91,5.95q-38.83,0-70.85-19.42L924,478.05a136.3,136.3,0,0,0,31.84,14.79,117.68,117.68,0,0,0,33.94,4.63q16.1,0,28.51-4.55a52.34,52.34,0,0,0,20.21-12.68,53.68,53.68,0,0,0,11.72-19,70,70,0,0,0,3.93-24V407.55h-.69A73.74,73.74,0,0,1,1026,431.08q-16.62,8.31-37.27,8.31a88.66,88.66,0,0,1-33-6.13,81.47,81.47,0,0,1-26.85-17.05A77.41,77.41,0,0,1,911,389.09a92.94,92.94,0,0,1-6.56-35.24,95.35,95.35,0,0,1,6.12-34.37,84.05,84.05,0,0,1,17-27.65A76.61,76.61,0,0,1,954,273.55a86.12,86.12,0,0,1,34-6.65,81.67,81.67,0,0,1,37.08,8.58,76.63,76.63,0,0,1,28.35,24.14h.69v-31Z"/><path class="cls-1" d="M1196.54,267.08v21c-5.36-.48-9-.71-11-.71q-26.41,0-42.33,19.5t-15.92,50.48v85.36h-18.9v-174h18.9v33.06h.87A69.87,69.87,0,0,1,1153.07,276a65.72,65.72,0,0,1,34.2-9.1q6.3,0,9.27.18"/><path class="cls-1" d="M1337,417.79a65.21,65.21,0,0,0,25-25.1q9.29-16.28,9.28-36.74a76.34,76.34,0,0,0-5.43-29,67.25,67.25,0,0,0-14.69-22.65,65.74,65.74,0,0,0-22-14.43,71,71,0,0,0-27-5.16q-20.31,0-36.21,9.62a65,65,0,0,0-24.41,25.8,75.81,75.81,0,0,0-8.48,35.78,74.29,74.29,0,0,0,8.57,35.51,65.07,65.07,0,0,0,24.49,25.63q15.91,9.53,36,9.53a69.89,69.89,0,0,0,34.81-8.83M1266,437.47A82.15,82.15,0,0,1,1238,418.58a85.49,85.49,0,0,1-17.75-28.17,93.17,93.17,0,0,1-6.39-34.46,94.4,94.4,0,0,1,6.39-34.73A86,86,0,0,1,1238,292.89a81.4,81.4,0,0,1,28.07-19,93.12,93.12,0,0,1,36.3-7q24.86,0,45,11.11a80.45,80.45,0,0,1,31.66,31.5q11.55,20.37,11.55,46.44,0,25.71-11.55,46a80.72,80.72,0,0,1-31.66,31.4q-20.13,11.1-45,11.1a93.12,93.12,0,0,1-36.3-7"/><path class="cls-1" d="M1568.46,268.66V442.72h-18.89v-32.2h-.71a76.06,76.06,0,0,1-26.76,25,68.75,68.75,0,0,1-33.76,8.91q-30.27,0-46.88-18.28t-16.62-53.26V268.66h18.89v98.49q0,16.26,3.15,27.81t9.44,18.36a37.7,37.7,0,0,0,14.78,10,56.78,56.78,0,0,0,19.86,3.15,50.59,50.59,0,0,0,22.22-5.15A59.14,59.14,0,0,0,1531.89,407a67.87,67.87,0,0,0,12.86-22.74,88.16,88.16,0,0,0,4.82-29.56V268.66Z"/><path class="cls-1" d="M1722,417.52a62.23,62.23,0,0,0,23.78-24.93,74,74,0,0,0,8.41-35.24,81.84,81.84,0,0,0-5.34-29.83,66.31,66.31,0,0,0-14.52-23,65.29,65.29,0,0,0-21.52-14.43,66.41,66.41,0,0,0-26-5.16,60.52,60.52,0,0,0-33.67,9.7,65.92,65.92,0,0,0-23.27,26.24,80.09,80.09,0,0,0-8.31,36.48,76.29,76.29,0,0,0,3.42,23.08,65.86,65.86,0,0,0,9.53,19.25,68.69,68.69,0,0,0,14.26,14.52,60.29,60.29,0,0,0,17.93,9.27,65.85,65.85,0,0,0,20.29,3.15q19.59,0,35-9.1m10.67-138.63a81.8,81.8,0,0,1,30.09,32.54q10.67,20.55,10.67,45.75a93.57,93.57,0,0,1-6.74,35.86,80.32,80.32,0,0,1-18.27,27.63,83.44,83.44,0,0,1-27.12,17.5,87.52,87.52,0,0,1-33.06,6.29q-21.52,0-38.23-8.92a73.29,73.29,0,0,1-27.2-25h-.7v103h-18.89V268.66h18.89v34.46h.7a76.44,76.44,0,0,1,28.25-26.68A77.51,77.51,0,0,1,1689,266.9q24.33,0,43.74,12"/><path class="cls-1" d="M414.94,430.8q-13.32-14.71-13.33-43.28V307.05H381.06V268.39h20.55V211.44l46.68-5.05v62h47.37v38.66H448.29v74q0,11.49,3.57,16.89t11.75,5.4q10.11,0,21.95-6.09l12,37.27a94.49,94.49,0,0,1-20,8.18q-10.1,2.79-26.12,2.79-23.16,0-36.49-14.72"/><path class="cls-1" d="M637.22,390.49q12.74-13.26,12.72-34.32,0-20.9-12.46-34.84T606.05,307.4q-19.15,0-32,13.41t-12.8,35.36q0,21.07,12.45,34.32t32.13,13.23a41.74,41.74,0,0,0,31.35-13.23m57.48-122.1V442.56H650.29V421.48h-.87q-18.64,24-52.08,24A85.66,85.66,0,0,1,564,439.08a77.69,77.69,0,0,1-26.48-18,81.91,81.91,0,0,1-17.32-28.39,109.41,109.41,0,0,1,0-73.07,85.94,85.94,0,0,1,17.15-28.73A79.49,79.49,0,0,1,596,265.43q31.88,0,51.37,22.64H648V268.39Z"/><polygon class="cls-1" points="799.23 392.57 798.36 392.57 763 442.56 712.32 442.56 772.23 353.56 712.84 268.38 765.97 268.38 798.18 318.2 799.05 318.2 831.63 268.38 884.39 268.38 825.01 353.39 885.44 442.56 834.41 442.56 799.23 392.57"/><path class="cls-1" d="M233.94,420.51,162.15,313.88a2.43,2.43,0,0,1,0-2.72L232.69,210a16.12,16.12,0,0,0-13.23-25.35H158.21l-42.95,61.83h0l-43-61.83H11.06A16.12,16.12,0,0,0-2.17,210L68.35,311.16a2.41,2.41,0,0,1,0,2.71L-3.42,420.51A16.13,16.13,0,0,0,10,445.65H68.09l47.17-67.83,47.17,67.83h58.12a16.14,16.14,0,0,0,13.39-25.14ZM165.39,198.42h54.07a2.39,2.39,0,0,1,2,3.77l-68.62,98.39-29.19-42ZM60.91,431.92H10a2.4,2.4,0,0,1-2-3.74L79.75,321.54a16.23,16.23,0,0,0-.14-18.24L9.09,202.18a2.39,2.39,0,0,1,2-3.76H65.12l79,113.78Zm161.76-1.27a2.31,2.31,0,0,1-2.12,1.27h-51l-46-66.13,28.92-41.59,70,104A2.3,2.3,0,0,1,222.67,430.65Z"/></svg>