<svg id="Camada_1" data-name="Camada 1" xmlns="http://www.w3.org/2000/svg" viewBox="0 0 600 600"><defs><style>.cls-1{fill:#fff;}</style></defs><title>X Branco</title><path class="cls-1" d="M526.73,501.25,389.58,297.53a4.61,4.61,0,0,1,0-5.19L524.34,99.16a30.82,30.82,0,0,0-25.27-48.44h-117L300,168.85h0L217.94,50.72h-117A30.81,30.81,0,0,0,75.66,99.16L210.38,292.34a4.63,4.63,0,0,1,0,5.19L73.28,501.25a30.82,30.82,0,0,0,25.56,48h111Q255,484.48,300,419.69l90.11,129.59H501.16a30.83,30.83,0,0,0,25.57-48ZM395.78,77H499.07a4.58,4.58,0,0,1,3.75,7.21l-131.08,188L316,191.84ZM196.18,523H98.84A4.58,4.58,0,0,1,95,515.9L232.17,312.18a31,31,0,0,0-.28-34.85L97.17,84.15a4.59,4.59,0,0,1,3.76-7.2H204.22l151,217.37Zm309-2.43a4.41,4.41,0,0,1-4,2.43H403.82L316,396.71Q343.6,357,371.23,317.25L505,515.9A4.43,4.43,0,0,1,505.21,520.61Z"/></svg>